# xmcd CD database file
#
# Track frame offsets:
#	150
#	15717
#	29205
#	52855
#	69485
#	88437
#	109472
#	122742
#	137302
#	149262
#	164007
#	174142
#	187795
#	202425
#	230600
#
# Disc length: 3207 seconds
#
# Revision: 0
# Processed by: cddbd v1.5.1PL0 Copyright (c) Steve Scherf et al.
# Submitted via: CDex 1.51
#
DISCID=dc0c850f
DTITLE=Rube, Gerd - For My Friends - Live and In Person
DYEAR=1994
DGENRE=Country
TTITLE0=Happy Day
TTITLE1=Far Far Away
TTITLE2=American Pie
TTITLE3=Could've Been Me
TTITLE4=Loosing My Religion
TTITLE5=Hotel California
TTITLE6=Broken Hearts 'n' Bourbon Whiskey
TTITLE7=Running Faster
TTITLE8=Boat On The River
TTITLE9=The Way I Feel
TTITLE10=Where Do The Children Play
TTITLE11=Father and Son
TTITLE12=Knockin' On Heaven's Door
TTITLE13=Bed Of Roses
TTITLE14=Mercedes Benz
EXTD=YEAR: 1994
EXTT0=
EXTT1=
EXTT2=
EXTT3=
EXTT4=
EXTT5=
EXTT6=
EXTT7=
EXTT8=
EXTT9=
EXTT10=
EXTT11=
EXTT12=
EXTT13=
EXTT14=
PLAYORDER=
